{
	"accessors":[{
		"bufferView":0,
		"type":"SCALAR",
		"componentType":5123,
		"count":10818,
		"byteOffset":0,
		"min":[0],
		"max":[2295]
	},
	{
		"bufferView":1,
		"type":"VEC3",
		"componentType":5126,
		"count":2296,
		"byteOffset":0,
		"min":[-0.06400000303983689,
		-0.06400000303983689,
		-0.015587729401886464],
		"max":[0.06400000303983689,
		0.06400000303983689,
		0.015587729401886464]
	},
	{
		"bufferView":1,
		"type":"VEC3",
		"componentType":5126,
		"count":2296,
		"byteOffset":12,
		"min":[-0.998719334602356,
		-0.998719334602356,
		-0.9997239708900452],
		"max":[0.998719334602356,
		0.998719334602356,
		0.9993953704833984]
	},
	{
		"bufferView":1,
		"type":"VEC2",
		"componentType":5126,
		"count":2296,
		"byteOffset":24,
		"min":[0.0016705684829503298,
		0.0016705684829503298],
		"max":[0.9950248599052429,
		0.9863928556442261]
	},
	{
		"bufferView":2,
		"type":"SCALAR",
		"componentType":5123,
		"count":408,
		"byteOffset":0,
		"min":[0],
		"max":[90]
	},
	{
		"bufferView":3,
		"type":"VEC3",
		"componentType":5126,
		"count":91,
		"byteOffset":0,
		"min":[-0.04996110498905182,
		-0.04996110498905182,
		0.015125669538974762],
		"max":[0.04996110498905182,
		0.04996110498905182,
		0.015241566114127636]
	},
	{
		"bufferView":3,
		"type":"VEC3",
		"componentType":5126,
		"count":91,
		"byteOffset":12,
		"min":[-0.5707653164863586,
		0.0,
		0.4311678111553192],
		"max":[0.0,
		0.6987999677658081,
		1.0]
	},
	{
		"bufferView":3,
		"type":"VEC2",
		"componentType":5126,
		"count":91,
		"byteOffset":24,
		"min":[0.03118165396153927,
		0.614106297492981],
		"max":[0.2773531675338745,
		0.8602777719497681]
	}],
	"asset":{
		"version":"2.0",
		"generator":"Maxon Cinema 4D 2023.2.2 (#200000219)"
	},
	"scenes":[{
		"nodes":[0]
	}],
	"nodes":[{
		"name":"M",
		"translation":[6.191743842799319e-18,
		0.0,
		0.0],
		"rotation":[4.329780301713277e-17,
		0.7071067690849304,
		0.7071067690849304,
		-4.329780301713277e-17],
		"scale":[1.0,
		1.0,
		1.0],
		"children":[1,
		2]
	},
	{
		"name":"M-1",
		"mesh":0
	},
	{
		"name":"M-2",
		"mesh":1
	}],
	"bufferViews":[{
		"buffer":0,
		"byteOffset":0,
		"byteLength":21636,
		"target":34963
	},
	{
		"buffer":0,
		"byteOffset":21636,
		"byteLength":73472,
		"target":34962,
		"byteStride":32
	},
	{
		"buffer":1,
		"byteOffset":0,
		"byteLength":816,
		"target":34963
	},
	{
		"buffer":1,
		"byteOffset":816,
		"byteLength":2912,
		"target":34962,
		"byteStride":32
	}],
	"meshes":[{
		"name":"M-1",
		"primitives":[{
			"attributes":{
				"POSITION":1,
				"NORMAL":2,
				"TEXCOORD_0":3
			},
			"indices":0,
			"material":0
		}]
	},
	{
		"name":"M-2",
		"primitives":[{
			"attributes":{
				"POSITION":5,
				"NORMAL":6,
				"TEXCOORD_0":7
			},
			"indices":4,
			"material":1
		}]
	}],
	"buffers":[{
		"uri":"data:application/octet-stream;base64,",
		"byteLength":95108
	},
	{
		"uri":"data:application/octet-stream;base64,",
		"byteLength":3728
	}],
	"materials":[{
		"pbrMetallicRoughness":{
			"baseColorFactor":[0.9500000000000001,
			0.9500000000000001,
			0.9500000000000001,
			1.0],
			"metallicFactor":1.0,
			"roughnessFactor":1.0
		},
		"emissiveFactor":[0.0,
		0.0,
		0.0],
		"alphaMode":"OPAQUE",
		"doubleSided":false,
		"name":"1"
	},
	{
		"pbrMetallicRoughness":{
			"baseColorFactor":[0.0,
			0.916666666666667,
			1.0,
			1.0],
			"metallicFactor":0.0,
			"roughnessFactor":0.5
		},
		"emissiveFactor":[0.0,
		0.0,
		0.0],
		"alphaMode":"OPAQUE",
		"doubleSided":false,
		"name":"2"
	}]
}